<mxfile host="app.diagrams.net" agent="Mozilla/5.0 (Windows NT 10.0; Win64; x64) AppleWebKit/537.36 (KHTML, like Gecko) Chrome/137.0.0.0 Safari/537.36" version="28.0.4" pages="3">
  <diagram name="创建学校" id="74e2e168-ea6b-b213-b513-2b3c1d86103e">
    <mxGraphModel dx="1158" dy="586" grid="1" gridSize="10" guides="1" tooltips="1" connect="1" arrows="1" fold="1" page="1" pageScale="1" pageWidth="1100" pageHeight="850" background="none" math="0" shadow="0">
      <root>
        <mxCell id="0" />
        <mxCell id="1" parent="0" />
        <mxCell id="77e6c97f196da883-1" value="&lt;font style=&quot;font-size: 14px;&quot;&gt;创建学校&lt;/font&gt;" style="swimlane;html=1;childLayout=stackLayout;startSize=20;rounded=0;shadow=0;labelBackgroundColor=none;strokeWidth=1;fontFamily=Verdana;fontSize=8;align=center;" parent="1" vertex="1">
          <mxGeometry x="270" y="70" width="480" height="550" as="geometry" />
        </mxCell>
        <mxCell id="77e6c97f196da883-2" value="学校" style="swimlane;html=1;startSize=20;" parent="77e6c97f196da883-1" vertex="1">
          <mxGeometry y="20" width="160" height="530" as="geometry" />
        </mxCell>
        <mxCell id="77e6c97f196da883-8" value="申请创建" style="rounded=1;whiteSpace=wrap;html=1;shadow=0;labelBackgroundColor=none;strokeWidth=1;fontFamily=Times New Roman;fontSize=12;align=center;" parent="77e6c97f196da883-2" vertex="1">
          <mxGeometry x="30" y="45" width="100" height="60" as="geometry" />
        </mxCell>
        <mxCell id="CdGkemPgdtzfOm2XO2oi-28" style="edgeStyle=orthogonalEdgeStyle;rounded=0;orthogonalLoop=1;jettySize=auto;html=1;entryX=0;entryY=0.5;entryDx=0;entryDy=0;" parent="77e6c97f196da883-2" source="77e6c97f196da883-9" target="CdGkemPgdtzfOm2XO2oi-26" edge="1">
          <mxGeometry relative="1" as="geometry">
            <Array as="points">
              <mxPoint x="80" y="250" />
              <mxPoint x="30" y="250" />
              <mxPoint x="30" y="460" />
            </Array>
          </mxGeometry>
        </mxCell>
        <mxCell id="77e6c97f196da883-9" value="学校设置" style="rounded=1;whiteSpace=wrap;html=1;shadow=0;labelBackgroundColor=none;strokeWidth=1;fontFamily=Times New Roman;fontSize=12;align=center;" parent="77e6c97f196da883-2" vertex="1">
          <mxGeometry x="30" y="159" width="100" height="60" as="geometry" />
        </mxCell>
        <mxCell id="CdGkemPgdtzfOm2XO2oi-18" value="" style="edgeStyle=orthogonalEdgeStyle;rounded=0;orthogonalLoop=1;jettySize=auto;html=1;entryX=0.5;entryY=0;entryDx=0;entryDy=0;" parent="77e6c97f196da883-2" source="CdGkemPgdtzfOm2XO2oi-30" target="CdGkemPgdtzfOm2XO2oi-26" edge="1">
          <mxGeometry relative="1" as="geometry">
            <mxPoint x="80" y="440" as="targetPoint" />
          </mxGeometry>
        </mxCell>
        <mxCell id="Oq-peDk7vQUzq3YupqYk-2" style="edgeStyle=orthogonalEdgeStyle;rounded=0;orthogonalLoop=1;jettySize=auto;html=1;entryX=0.5;entryY=0;entryDx=0;entryDy=0;endArrow=none;endFill=0;" edge="1" parent="77e6c97f196da883-2" source="77e6c97f196da883-13" target="CdGkemPgdtzfOm2XO2oi-30">
          <mxGeometry relative="1" as="geometry" />
        </mxCell>
        <mxCell id="77e6c97f196da883-13" value="审核" style="rhombus;whiteSpace=wrap;html=1;rounded=0;shadow=0;labelBackgroundColor=none;strokeWidth=1;fontFamily=Times New Roman;fontSize=12;align=center;" parent="77e6c97f196da883-2" vertex="1">
          <mxGeometry x="58" y="289" width="80" height="60" as="geometry" />
        </mxCell>
        <mxCell id="CdGkemPgdtzfOm2XO2oi-26" value="添加教师" style="rounded=1;whiteSpace=wrap;html=1;shadow=0;labelBackgroundColor=none;strokeWidth=1;fontFamily=Times New Roman;fontSize=12;align=center;" parent="77e6c97f196da883-2" vertex="1">
          <mxGeometry x="47" y="430" width="100" height="60" as="geometry" />
        </mxCell>
        <UserObject label="审核通过" placeholders="1" name="Variable" id="CdGkemPgdtzfOm2XO2oi-30">
          <mxCell style="text;html=1;strokeColor=none;fillColor=none;align=center;verticalAlign=middle;whiteSpace=wrap;overflow=hidden;" parent="77e6c97f196da883-2" vertex="1">
            <mxGeometry x="57" y="375" width="80" height="20" as="geometry" />
          </mxCell>
        </UserObject>
        <mxCell id="77e6c97f196da883-26" style="edgeStyle=orthogonalEdgeStyle;rounded=1;html=1;labelBackgroundColor=none;startArrow=none;startFill=0;startSize=5;endArrow=classicThin;endFill=1;endSize=5;jettySize=auto;orthogonalLoop=1;strokeWidth=1;fontFamily=Verdana;fontSize=8" parent="77e6c97f196da883-1" source="77e6c97f196da883-8" target="77e6c97f196da883-11" edge="1">
          <mxGeometry relative="1" as="geometry" />
        </mxCell>
        <mxCell id="77e6c97f196da883-27" style="edgeStyle=orthogonalEdgeStyle;rounded=0;html=1;labelBackgroundColor=none;startArrow=none;startFill=0;startSize=5;endArrow=classicThin;endFill=1;endSize=5;jettySize=auto;orthogonalLoop=1;strokeWidth=1;fontFamily=Verdana;fontSize=8;curved=0;entryX=0.5;entryY=0;entryDx=0;entryDy=0;" parent="77e6c97f196da883-1" source="77e6c97f196da883-11" target="77e6c97f196da883-9" edge="1">
          <mxGeometry relative="1" as="geometry">
            <Array as="points">
              <mxPoint x="240" y="155" />
              <mxPoint x="80" y="155" />
            </Array>
          </mxGeometry>
        </mxCell>
        <mxCell id="77e6c97f196da883-39" style="edgeStyle=orthogonalEdgeStyle;rounded=1;html=1;labelBackgroundColor=none;startArrow=none;startFill=0;startSize=5;endArrow=classicThin;endFill=1;endSize=5;jettySize=auto;orthogonalLoop=1;strokeWidth=1;fontFamily=Verdana;fontSize=8" parent="77e6c97f196da883-1" edge="1">
          <mxGeometry relative="1" as="geometry">
            <mxPoint x="500" y="20" as="sourcePoint" />
            <mxPoint x="500" y="20" as="targetPoint" />
          </mxGeometry>
        </mxCell>
        <mxCell id="77e6c97f196da883-40" style="edgeStyle=orthogonalEdgeStyle;rounded=1;html=1;labelBackgroundColor=none;startArrow=none;startFill=0;startSize=5;endArrow=classicThin;endFill=1;endSize=5;jettySize=auto;orthogonalLoop=1;strokeWidth=1;fontFamily=Verdana;fontSize=8" parent="77e6c97f196da883-1" edge="1">
          <mxGeometry relative="1" as="geometry">
            <mxPoint x="500" y="20" as="sourcePoint" />
            <mxPoint x="500" y="20" as="targetPoint" />
          </mxGeometry>
        </mxCell>
        <mxCell id="107ba76e4e335f99-1" style="edgeStyle=orthogonalEdgeStyle;rounded=1;html=1;labelBackgroundColor=none;startArrow=none;startFill=0;startSize=5;endArrow=classicThin;endFill=1;endSize=5;jettySize=auto;orthogonalLoop=1;strokeWidth=1;fontFamily=Verdana;fontSize=8" parent="77e6c97f196da883-1" edge="1">
          <mxGeometry relative="1" as="geometry">
            <mxPoint x="500" y="20" as="sourcePoint" />
            <mxPoint x="500" y="20" as="targetPoint" />
          </mxGeometry>
        </mxCell>
        <mxCell id="107ba76e4e335f99-3" style="edgeStyle=orthogonalEdgeStyle;rounded=1;html=1;labelBackgroundColor=none;startArrow=none;startFill=0;startSize=5;endArrow=classicThin;endFill=1;endSize=5;jettySize=auto;orthogonalLoop=1;strokeColor=#000000;strokeWidth=1;fontFamily=Verdana;fontSize=8;fontColor=#000000;" parent="77e6c97f196da883-1" edge="1">
          <mxGeometry relative="1" as="geometry">
            <mxPoint x="500" y="20" as="sourcePoint" />
            <mxPoint x="500" y="20" as="targetPoint" />
          </mxGeometry>
        </mxCell>
        <mxCell id="77e6c97f196da883-3" value="后台" style="swimlane;html=1;startSize=20;" parent="77e6c97f196da883-1" vertex="1">
          <mxGeometry x="160" y="20" width="160" height="530" as="geometry" />
        </mxCell>
        <mxCell id="77e6c97f196da883-11" value="创建学校" style="rounded=1;whiteSpace=wrap;html=1;shadow=0;labelBackgroundColor=none;strokeWidth=1;fontFamily=Times New Roman;fontSize=12;align=center;" parent="77e6c97f196da883-3" vertex="1">
          <mxGeometry x="30" y="45" width="100" height="60" as="geometry" />
        </mxCell>
        <mxCell id="CdGkemPgdtzfOm2XO2oi-2" value="用户加入学校" style="rounded=1;whiteSpace=wrap;html=1;shadow=0;labelBackgroundColor=none;strokeWidth=1;fontFamily=Times New Roman;fontSize=12;align=center;" parent="77e6c97f196da883-3" vertex="1">
          <mxGeometry x="30" y="430" width="100" height="60" as="geometry" />
        </mxCell>
        <mxCell id="CdGkemPgdtzfOm2XO2oi-6" value="创建用户&lt;div&gt;（游客学校）&lt;/div&gt;" style="rounded=1;whiteSpace=wrap;html=1;shadow=0;labelBackgroundColor=none;strokeWidth=1;fontFamily=Times New Roman;fontSize=12;align=center;" parent="77e6c97f196da883-3" vertex="1">
          <mxGeometry x="30" y="157" width="100" height="60" as="geometry" />
        </mxCell>
        <UserObject label="不通过，打回" placeholders="1" name="Variable" id="CdGkemPgdtzfOm2XO2oi-20">
          <mxCell style="text;html=1;strokeColor=none;fillColor=none;align=center;verticalAlign=middle;whiteSpace=wrap;overflow=hidden;" parent="77e6c97f196da883-3" vertex="1">
            <mxGeometry x="-50" y="253" width="80" height="20" as="geometry" />
          </mxCell>
        </UserObject>
        <mxCell id="77e6c97f196da883-4" value="教师" style="swimlane;html=1;startSize=20;" parent="77e6c97f196da883-1" vertex="1">
          <mxGeometry x="320" y="20" width="160" height="530" as="geometry" />
        </mxCell>
        <mxCell id="77e6c97f196da883-12" value="申请加入学校" style="rounded=1;whiteSpace=wrap;html=1;shadow=0;labelBackgroundColor=none;strokeWidth=1;fontFamily=Times New Roman;fontSize=12;align=center;" parent="77e6c97f196da883-4" vertex="1">
          <mxGeometry x="30" y="289" width="100" height="60" as="geometry" />
        </mxCell>
        <mxCell id="CdGkemPgdtzfOm2XO2oi-1" value="注册账号" style="rounded=1;whiteSpace=wrap;html=1;shadow=0;labelBackgroundColor=none;strokeWidth=1;fontFamily=Times New Roman;fontSize=12;align=center;" parent="77e6c97f196da883-4" vertex="1">
          <mxGeometry x="30" y="157" width="100" height="60" as="geometry" />
        </mxCell>
        <mxCell id="Oq-peDk7vQUzq3YupqYk-8" value="拥有学校对应&lt;div&gt;教学教研权限&lt;/div&gt;" style="rounded=1;whiteSpace=wrap;html=1;shadow=0;labelBackgroundColor=none;strokeWidth=1;fontFamily=Times New Roman;fontSize=12;align=center;" vertex="1" parent="77e6c97f196da883-4">
          <mxGeometry x="30" y="430" width="100" height="60" as="geometry" />
        </mxCell>
        <mxCell id="CdGkemPgdtzfOm2XO2oi-7" value="" style="edgeStyle=orthogonalEdgeStyle;rounded=0;orthogonalLoop=1;jettySize=auto;html=1;" parent="77e6c97f196da883-1" source="CdGkemPgdtzfOm2XO2oi-1" target="CdGkemPgdtzfOm2XO2oi-6" edge="1">
          <mxGeometry relative="1" as="geometry" />
        </mxCell>
        <mxCell id="CdGkemPgdtzfOm2XO2oi-10" value="" style="edgeStyle=orthogonalEdgeStyle;rounded=0;orthogonalLoop=1;jettySize=auto;html=1;exitX=0.5;exitY=1;exitDx=0;exitDy=0;entryX=0.5;entryY=0;entryDx=0;entryDy=0;" parent="77e6c97f196da883-1" source="CdGkemPgdtzfOm2XO2oi-6" target="77e6c97f196da883-12" edge="1">
          <mxGeometry relative="1" as="geometry">
            <mxPoint x="400" y="160" as="sourcePoint" />
            <mxPoint x="340" y="175" as="targetPoint" />
            <Array as="points">
              <mxPoint x="240" y="250" />
              <mxPoint x="400" y="250" />
            </Array>
          </mxGeometry>
        </mxCell>
        <mxCell id="CdGkemPgdtzfOm2XO2oi-16" style="edgeStyle=orthogonalEdgeStyle;rounded=0;orthogonalLoop=1;jettySize=auto;html=1;exitX=0;exitY=0.5;exitDx=0;exitDy=0;entryX=1;entryY=0.5;entryDx=0;entryDy=0;" parent="77e6c97f196da883-1" source="77e6c97f196da883-12" target="77e6c97f196da883-13" edge="1">
          <mxGeometry relative="1" as="geometry" />
        </mxCell>
        <mxCell id="Oq-peDk7vQUzq3YupqYk-1" style="edgeStyle=orthogonalEdgeStyle;rounded=0;orthogonalLoop=1;jettySize=auto;html=1;entryX=0;entryY=0.5;entryDx=0;entryDy=0;" edge="1" parent="77e6c97f196da883-1" source="CdGkemPgdtzfOm2XO2oi-26" target="CdGkemPgdtzfOm2XO2oi-2">
          <mxGeometry relative="1" as="geometry" />
        </mxCell>
        <mxCell id="Oq-peDk7vQUzq3YupqYk-4" style="edgeStyle=orthogonalEdgeStyle;rounded=0;orthogonalLoop=1;jettySize=auto;html=1;entryX=0.5;entryY=0;entryDx=0;entryDy=0;" edge="1" parent="77e6c97f196da883-1" source="CdGkemPgdtzfOm2XO2oi-20" target="77e6c97f196da883-12">
          <mxGeometry relative="1" as="geometry" />
        </mxCell>
        <mxCell id="Oq-peDk7vQUzq3YupqYk-5" style="edgeStyle=orthogonalEdgeStyle;rounded=0;orthogonalLoop=1;jettySize=auto;html=1;entryX=0;entryY=0.5;entryDx=0;entryDy=0;endArrow=none;endFill=0;" edge="1" parent="77e6c97f196da883-1" source="77e6c97f196da883-13" target="CdGkemPgdtzfOm2XO2oi-20">
          <mxGeometry relative="1" as="geometry">
            <Array as="points">
              <mxPoint x="98" y="283" />
            </Array>
          </mxGeometry>
        </mxCell>
        <mxCell id="Oq-peDk7vQUzq3YupqYk-9" style="edgeStyle=orthogonalEdgeStyle;rounded=0;orthogonalLoop=1;jettySize=auto;html=1;entryX=0;entryY=0.5;entryDx=0;entryDy=0;" edge="1" parent="77e6c97f196da883-1" source="CdGkemPgdtzfOm2XO2oi-2" target="Oq-peDk7vQUzq3YupqYk-8">
          <mxGeometry relative="1" as="geometry" />
        </mxCell>
      </root>
    </mxGraphModel>
  </diagram>
  <diagram id="C_7uoRoY5CWhVC4SjV5t" name="校本资源">
    <mxGraphModel dx="1042" dy="527" grid="1" gridSize="10" guides="1" tooltips="1" connect="1" arrows="1" fold="1" page="1" pageScale="1" pageWidth="827" pageHeight="1169" math="0" shadow="0">
      <root>
        <mxCell id="0" />
        <mxCell id="1" parent="0" />
        <mxCell id="zzzG_y_qCOUdYyZkeHTf-40" style="edgeStyle=orthogonalEdgeStyle;rounded=0;orthogonalLoop=1;jettySize=auto;html=1;entryX=0.5;entryY=0;entryDx=0;entryDy=0;exitX=0.5;exitY=1;exitDx=0;exitDy=0;" edge="1" parent="1" source="zzzG_y_qCOUdYyZkeHTf-42" target="zzzG_y_qCOUdYyZkeHTf-8">
          <mxGeometry relative="1" as="geometry">
            <mxPoint x="280" y="80" as="sourcePoint" />
          </mxGeometry>
        </mxCell>
        <mxCell id="zzzG_y_qCOUdYyZkeHTf-6" value="完成集体备课" style="shape=mxgraph.flowchart.terminator;strokeWidth=2;gradientColor=none;gradientDirection=north;fontStyle=0;html=1;fontFamily=Times New Roman;" vertex="1" parent="1">
          <mxGeometry x="220" y="1030" width="120" height="30" as="geometry" />
        </mxCell>
        <mxCell id="zzzG_y_qCOUdYyZkeHTf-7" value="&lt;span style=&quot;font-weight: 400;&quot;&gt;资源上传&lt;/span&gt;" style="rounded=1;whiteSpace=wrap;html=1;fontFamily=Times New Roman;fontStyle=1;strokeWidth=2;" vertex="1" parent="1">
          <mxGeometry x="230" y="190" width="100" height="48" as="geometry" />
        </mxCell>
        <mxCell id="zzzG_y_qCOUdYyZkeHTf-41" style="edgeStyle=orthogonalEdgeStyle;rounded=0;orthogonalLoop=1;jettySize=auto;html=1;entryX=0.5;entryY=0;entryDx=0;entryDy=0;" edge="1" parent="1" source="zzzG_y_qCOUdYyZkeHTf-8" target="zzzG_y_qCOUdYyZkeHTf-7">
          <mxGeometry relative="1" as="geometry" />
        </mxCell>
        <mxCell id="zzzG_y_qCOUdYyZkeHTf-8" value="&lt;span style=&quot;font-weight: 400;&quot;&gt;创建资源目录&lt;/span&gt;" style="rounded=1;whiteSpace=wrap;html=1;fontFamily=Times New Roman;fontStyle=1;strokeWidth=2;" vertex="1" parent="1">
          <mxGeometry x="230" y="100" width="100" height="48" as="geometry" />
        </mxCell>
        <mxCell id="zzzG_y_qCOUdYyZkeHTf-10" style="edgeStyle=orthogonalEdgeStyle;rounded=0;orthogonalLoop=1;jettySize=auto;html=1;entryX=0.5;entryY=0;entryDx=0;entryDy=0;exitX=0.5;exitY=1;exitDx=0;exitDy=0;" edge="1" parent="1" source="zzzG_y_qCOUdYyZkeHTf-34" target="zzzG_y_qCOUdYyZkeHTf-12">
          <mxGeometry relative="1" as="geometry">
            <mxPoint x="280" y="470" as="targetPoint" />
            <mxPoint x="280" y="426" as="sourcePoint" />
          </mxGeometry>
        </mxCell>
        <mxCell id="zzzG_y_qCOUdYyZkeHTf-11" value="" style="edgeStyle=orthogonalEdgeStyle;rounded=0;orthogonalLoop=1;jettySize=auto;html=1;" edge="1" parent="1" source="zzzG_y_qCOUdYyZkeHTf-12" target="zzzG_y_qCOUdYyZkeHTf-14">
          <mxGeometry relative="1" as="geometry" />
        </mxCell>
        <mxCell id="zzzG_y_qCOUdYyZkeHTf-12" value="&lt;span style=&quot;font-weight: 400;&quot;&gt;资源筛选引用&lt;/span&gt;" style="rounded=1;whiteSpace=wrap;html=1;fontFamily=Times New Roman;fontStyle=1;strokeWidth=2;" vertex="1" parent="1">
          <mxGeometry x="230" y="410" width="100" height="48" as="geometry" />
        </mxCell>
        <mxCell id="0GDNrwVyVEN1qFEmc57I-2" style="edgeStyle=orthogonalEdgeStyle;rounded=0;orthogonalLoop=1;jettySize=auto;html=1;entryX=1;entryY=0.5;entryDx=0;entryDy=0;" edge="1" parent="1" source="zzzG_y_qCOUdYyZkeHTf-14" target="zzzG_y_qCOUdYyZkeHTf-7">
          <mxGeometry relative="1" as="geometry">
            <Array as="points">
              <mxPoint x="440" y="524" />
              <mxPoint x="440" y="214" />
            </Array>
          </mxGeometry>
        </mxCell>
        <mxCell id="zzzG_y_qCOUdYyZkeHTf-14" value="备课编辑" style="whiteSpace=wrap;html=1;fontFamily=Times New Roman;rounded=1;fontStyle=0;strokeWidth=2;" vertex="1" parent="1">
          <mxGeometry x="230" y="500" width="100" height="48" as="geometry" />
        </mxCell>
        <mxCell id="zzzG_y_qCOUdYyZkeHTf-27" style="edgeStyle=orthogonalEdgeStyle;rounded=0;orthogonalLoop=1;jettySize=auto;html=1;entryX=0;entryY=0.5;entryDx=0;entryDy=0;" edge="1" parent="1" source="zzzG_y_qCOUdYyZkeHTf-21" target="zzzG_y_qCOUdYyZkeHTf-7">
          <mxGeometry relative="1" as="geometry" />
        </mxCell>
        <mxCell id="zzzG_y_qCOUdYyZkeHTf-21" value="集体备课完成&lt;br&gt;&lt;div&gt;资源上传校本&lt;/div&gt;" style="shape=parallelogram;perimeter=parallelogramPerimeter;whiteSpace=wrap;html=1;fixedSize=1;fontFamily=Times New Roman;strokeWidth=2;gradientColor=none;gradientDirection=north;fontStyle=0;" vertex="1" parent="1">
          <mxGeometry x="60" y="184" width="120" height="60" as="geometry" />
        </mxCell>
        <mxCell id="zzzG_y_qCOUdYyZkeHTf-22" value="发布" style="whiteSpace=wrap;html=1;fontFamily=Times New Roman;rounded=1;fontStyle=0;strokeWidth=2;" vertex="1" parent="1">
          <mxGeometry x="220" y="930" width="120" height="60" as="geometry" />
        </mxCell>
        <mxCell id="zzzG_y_qCOUdYyZkeHTf-23" style="edgeStyle=orthogonalEdgeStyle;rounded=0;orthogonalLoop=1;jettySize=auto;html=1;entryX=0.5;entryY=0;entryDx=0;entryDy=0;entryPerimeter=0;" edge="1" parent="1" source="zzzG_y_qCOUdYyZkeHTf-22" target="zzzG_y_qCOUdYyZkeHTf-6">
          <mxGeometry relative="1" as="geometry" />
        </mxCell>
        <mxCell id="zzzG_y_qCOUdYyZkeHTf-35" style="edgeStyle=orthogonalEdgeStyle;rounded=0;orthogonalLoop=1;jettySize=auto;html=1;endArrow=none;endFill=0;jumpSize=0;" edge="1" parent="1" source="zzzG_y_qCOUdYyZkeHTf-25" target="zzzG_y_qCOUdYyZkeHTf-34">
          <mxGeometry relative="1" as="geometry" />
        </mxCell>
        <mxCell id="zzzG_y_qCOUdYyZkeHTf-38" style="edgeStyle=orthogonalEdgeStyle;rounded=0;orthogonalLoop=1;jettySize=auto;html=1;endArrow=none;endFill=0;" edge="1" parent="1" source="zzzG_y_qCOUdYyZkeHTf-25" target="zzzG_y_qCOUdYyZkeHTf-36">
          <mxGeometry relative="1" as="geometry" />
        </mxCell>
        <mxCell id="zzzG_y_qCOUdYyZkeHTf-25" value="资源审核" style="html=1;whiteSpace=wrap;aspect=fixed;shape=isoRectangle;fontFamily=Times New Roman;strokeWidth=2;" vertex="1" parent="1">
          <mxGeometry x="230" y="275" width="100" height="60" as="geometry" />
        </mxCell>
        <mxCell id="zzzG_y_qCOUdYyZkeHTf-26" style="edgeStyle=orthogonalEdgeStyle;rounded=0;orthogonalLoop=1;jettySize=auto;html=1;entryX=0.504;entryY=0.007;entryDx=0;entryDy=0;entryPerimeter=0;" edge="1" parent="1" source="zzzG_y_qCOUdYyZkeHTf-7" target="zzzG_y_qCOUdYyZkeHTf-25">
          <mxGeometry relative="1" as="geometry">
            <mxPoint x="320" y="320" as="targetPoint" />
          </mxGeometry>
        </mxCell>
        <mxCell id="zzzG_y_qCOUdYyZkeHTf-34" value="通过" style="text;html=1;align=center;verticalAlign=middle;whiteSpace=wrap;rounded=0;fontFamily=Times New Roman;" vertex="1" parent="1">
          <mxGeometry x="250" y="350" width="60" height="30" as="geometry" />
        </mxCell>
        <mxCell id="0GDNrwVyVEN1qFEmc57I-1" style="edgeStyle=orthogonalEdgeStyle;rounded=0;orthogonalLoop=1;jettySize=auto;html=1;entryX=1;entryY=0.5;entryDx=0;entryDy=0;" edge="1" parent="1" source="zzzG_y_qCOUdYyZkeHTf-36" target="zzzG_y_qCOUdYyZkeHTf-7">
          <mxGeometry relative="1" as="geometry">
            <Array as="points">
              <mxPoint x="440" y="305" />
              <mxPoint x="440" y="214" />
            </Array>
          </mxGeometry>
        </mxCell>
        <mxCell id="zzzG_y_qCOUdYyZkeHTf-36" value="不通过" style="text;html=1;align=center;verticalAlign=middle;whiteSpace=wrap;rounded=0;fontFamily=Times New Roman;" vertex="1" parent="1">
          <mxGeometry x="354" y="290" width="60" height="30" as="geometry" />
        </mxCell>
        <mxCell id="zzzG_y_qCOUdYyZkeHTf-42" value="校本资源建设" style="rounded=1;whiteSpace=wrap;html=1;fontFamily=Times New Roman;fontStyle=0;strokeWidth=2;arcSize=50;" vertex="1" parent="1">
          <mxGeometry x="240" y="30" width="80" height="40" as="geometry" />
        </mxCell>
      </root>
    </mxGraphModel>
  </diagram>
  <diagram id="Vg8Dk6QE5g2-CyOcH0Ax" name="教学教研">
    <mxGraphModel dx="1042" dy="527" grid="1" gridSize="10" guides="1" tooltips="1" connect="1" arrows="1" fold="1" page="1" pageScale="1" pageWidth="827" pageHeight="1169" math="0" shadow="0">
      <root>
        <mxCell id="0" />
        <mxCell id="1" parent="0" />
        <mxCell id="yAgrdaD9I5sq0i10FVV4-79" value="" style="edgeStyle=orthogonalEdgeStyle;rounded=0;orthogonalLoop=1;jettySize=auto;html=1;exitX=1;exitY=0.5;exitDx=0;exitDy=0;" edge="1" parent="1" source="yAgrdaD9I5sq0i10FVV4-80" target="yAgrdaD9I5sq0i10FVV4-78">
          <mxGeometry relative="1" as="geometry" />
        </mxCell>
        <mxCell id="-v3Z4ni_2ocROoykEph5-4" style="edgeStyle=orthogonalEdgeStyle;rounded=0;orthogonalLoop=1;jettySize=auto;html=1;entryX=0.5;entryY=0;entryDx=0;entryDy=0;" edge="1" parent="1" source="yAgrdaD9I5sq0i10FVV4-57" target="yAgrdaD9I5sq0i10FVV4-60">
          <mxGeometry relative="1" as="geometry" />
        </mxCell>
        <mxCell id="yAgrdaD9I5sq0i10FVV4-57" value="&lt;span style=&quot;font-weight: normal;&quot;&gt;设置组长&lt;/span&gt;&lt;div&gt;&lt;span style=&quot;font-weight: normal;&quot;&gt;添加教师&lt;/span&gt;&lt;/div&gt;" style="rounded=1;whiteSpace=wrap;html=1;fontFamily=Times New Roman;fontStyle=1;strokeWidth=2;" vertex="1" parent="1">
          <mxGeometry x="160" y="210" width="100" height="40" as="geometry" />
        </mxCell>
        <mxCell id="-v3Z4ni_2ocROoykEph5-3" style="edgeStyle=orthogonalEdgeStyle;rounded=0;orthogonalLoop=1;jettySize=auto;html=1;entryX=0.5;entryY=0;entryDx=0;entryDy=0;" edge="1" parent="1" source="yAgrdaD9I5sq0i10FVV4-59" target="yAgrdaD9I5sq0i10FVV4-57">
          <mxGeometry relative="1" as="geometry" />
        </mxCell>
        <mxCell id="yAgrdaD9I5sq0i10FVV4-59" value="&lt;span style=&quot;font-weight: 400;&quot;&gt;创建教研组&lt;/span&gt;" style="rounded=1;whiteSpace=wrap;html=1;fontFamily=Times New Roman;fontStyle=1;strokeWidth=2;" vertex="1" parent="1">
          <mxGeometry x="160" y="130" width="100" height="40" as="geometry" />
        </mxCell>
        <mxCell id="yAgrdaD9I5sq0i10FVV4-60" value="&lt;span style=&quot;font-weight: 400;&quot;&gt;设置教学内容&lt;/span&gt;&lt;div&gt;&lt;span style=&quot;font-weight: 400;&quot;&gt;创建课程&lt;/span&gt;&lt;div&gt;&lt;span style=&quot;font-weight: 400;&quot;&gt;上传资料&lt;/span&gt;&lt;/div&gt;&lt;/div&gt;" style="rounded=1;whiteSpace=wrap;html=1;fontFamily=Times New Roman;fontStyle=1;strokeWidth=2;" vertex="1" parent="1">
          <mxGeometry x="150" y="290" width="120" height="60" as="geometry" />
        </mxCell>
        <mxCell id="yAgrdaD9I5sq0i10FVV4-61" style="edgeStyle=orthogonalEdgeStyle;rounded=0;orthogonalLoop=1;jettySize=auto;html=1;entryX=0.5;entryY=0;entryDx=0;entryDy=0;" edge="1" parent="1" source="yAgrdaD9I5sq0i10FVV4-60" target="yAgrdaD9I5sq0i10FVV4-64">
          <mxGeometry relative="1" as="geometry">
            <mxPoint x="210" y="480" as="targetPoint" />
          </mxGeometry>
        </mxCell>
        <mxCell id="yAgrdaD9I5sq0i10FVV4-68" value="" style="edgeStyle=orthogonalEdgeStyle;rounded=0;orthogonalLoop=1;jettySize=auto;html=1;entryX=0.5;entryY=0;entryDx=0;entryDy=0;" edge="1" parent="1" source="yAgrdaD9I5sq0i10FVV4-64" target="yAgrdaD9I5sq0i10FVV4-69">
          <mxGeometry relative="1" as="geometry">
            <mxPoint x="210" y="450" as="targetPoint" />
          </mxGeometry>
        </mxCell>
        <mxCell id="yAgrdaD9I5sq0i10FVV4-64" value="&lt;span style=&quot;font-weight: 400;&quot;&gt;发起集体备课&lt;/span&gt;" style="rounded=1;whiteSpace=wrap;html=1;fontFamily=Times New Roman;fontStyle=1;strokeWidth=2;" vertex="1" parent="1">
          <mxGeometry x="160" y="380" width="100" height="40" as="geometry" />
        </mxCell>
        <mxCell id="yAgrdaD9I5sq0i10FVV4-72" value="" style="edgeStyle=orthogonalEdgeStyle;rounded=0;orthogonalLoop=1;jettySize=auto;html=1;" edge="1" parent="1" source="yAgrdaD9I5sq0i10FVV4-69" target="yAgrdaD9I5sq0i10FVV4-71">
          <mxGeometry relative="1" as="geometry" />
        </mxCell>
        <mxCell id="yAgrdaD9I5sq0i10FVV4-69" value="&lt;span style=&quot;font-weight: normal;&quot;&gt;分享邀请&lt;/span&gt;" style="whiteSpace=wrap;html=1;fontFamily=Times New Roman;rounded=1;fontStyle=1;strokeWidth=2;" vertex="1" parent="1">
          <mxGeometry x="160" y="450" width="100" height="40" as="geometry" />
        </mxCell>
        <mxCell id="yAgrdaD9I5sq0i10FVV4-74" value="" style="edgeStyle=orthogonalEdgeStyle;rounded=0;orthogonalLoop=1;jettySize=auto;html=1;" edge="1" parent="1" source="yAgrdaD9I5sq0i10FVV4-71" target="yAgrdaD9I5sq0i10FVV4-73">
          <mxGeometry relative="1" as="geometry" />
        </mxCell>
        <mxCell id="yAgrdaD9I5sq0i10FVV4-71" value="在线协同编辑" style="whiteSpace=wrap;html=1;fontFamily=Times New Roman;rounded=1;fontStyle=0;strokeWidth=2;" vertex="1" parent="1">
          <mxGeometry x="160" y="520" width="100" height="40" as="geometry" />
        </mxCell>
        <mxCell id="yAgrdaD9I5sq0i10FVV4-73" value="多次编辑/评论/&lt;div&gt;批注&lt;/div&gt;" style="whiteSpace=wrap;html=1;fontFamily=Times New Roman;rounded=1;fontStyle=0;strokeWidth=2;" vertex="1" parent="1">
          <mxGeometry x="160" y="590" width="100" height="40" as="geometry" />
        </mxCell>
        <mxCell id="yAgrdaD9I5sq0i10FVV4-75" style="edgeStyle=orthogonalEdgeStyle;rounded=0;orthogonalLoop=1;jettySize=auto;html=1;entryX=0.5;entryY=0;entryDx=0;entryDy=0;" edge="1" parent="1" source="yAgrdaD9I5sq0i10FVV4-73" target="yAgrdaD9I5sq0i10FVV4-80">
          <mxGeometry relative="1" as="geometry" />
        </mxCell>
        <mxCell id="yAgrdaD9I5sq0i10FVV4-78" value="word版集备报告&lt;div&gt;资源上传校本&lt;/div&gt;" style="shape=parallelogram;perimeter=parallelogramPerimeter;whiteSpace=wrap;html=1;fixedSize=1;fontFamily=Times New Roman;strokeWidth=2;gradientColor=none;gradientDirection=north;fontStyle=0;" vertex="1" parent="1">
          <mxGeometry x="310" y="650" width="120" height="60" as="geometry" />
        </mxCell>
        <mxCell id="yAgrdaD9I5sq0i10FVV4-80" value="发布" style="whiteSpace=wrap;html=1;fontFamily=Times New Roman;rounded=1;fontStyle=0;strokeWidth=2;" vertex="1" parent="1">
          <mxGeometry x="160" y="660" width="100" height="40" as="geometry" />
        </mxCell>
        <mxCell id="yAgrdaD9I5sq0i10FVV4-81" style="edgeStyle=orthogonalEdgeStyle;rounded=0;orthogonalLoop=1;jettySize=auto;html=1;entryX=0.5;entryY=0;entryDx=0;entryDy=0;" edge="1" parent="1" source="yAgrdaD9I5sq0i10FVV4-80" target="-v3Z4ni_2ocROoykEph5-5">
          <mxGeometry relative="1" as="geometry">
            <mxPoint x="210" y="1000" as="targetPoint" />
          </mxGeometry>
        </mxCell>
        <mxCell id="-v3Z4ni_2ocROoykEph5-2" style="edgeStyle=orthogonalEdgeStyle;rounded=0;orthogonalLoop=1;jettySize=auto;html=1;entryX=0.5;entryY=0;entryDx=0;entryDy=0;" edge="1" parent="1" source="-v3Z4ni_2ocROoykEph5-1" target="yAgrdaD9I5sq0i10FVV4-59">
          <mxGeometry relative="1" as="geometry" />
        </mxCell>
        <mxCell id="-v3Z4ni_2ocROoykEph5-1" value="开始集体备课" style="rounded=1;whiteSpace=wrap;html=1;fontFamily=Times New Roman;fontStyle=0;strokeWidth=2;arcSize=50;" vertex="1" parent="1">
          <mxGeometry x="160" y="60" width="100" height="40" as="geometry" />
        </mxCell>
        <mxCell id="-v3Z4ni_2ocROoykEph5-5" value="完成集体备课" style="rounded=1;whiteSpace=wrap;html=1;fontFamily=Times New Roman;fontStyle=0;strokeWidth=2;arcSize=50;" vertex="1" parent="1">
          <mxGeometry x="160" y="740" width="100" height="40" as="geometry" />
        </mxCell>
        <mxCell id="S8RayWoB1vWrpVeFTTZD-2" style="edgeStyle=orthogonalEdgeStyle;rounded=0;orthogonalLoop=1;jettySize=auto;html=1;" edge="1" parent="1" source="S8RayWoB1vWrpVeFTTZD-3" target="S8RayWoB1vWrpVeFTTZD-26">
          <mxGeometry relative="1" as="geometry">
            <mxPoint x="1050" y="350" as="targetPoint" />
          </mxGeometry>
        </mxCell>
        <mxCell id="S8RayWoB1vWrpVeFTTZD-3" value="&lt;span style=&quot;font-weight: 400;&quot;&gt;评价课程&lt;/span&gt;" style="rounded=1;whiteSpace=wrap;html=1;fontFamily=Times New Roman;fontStyle=1;strokeWidth=2;" vertex="1" parent="1">
          <mxGeometry x="1000" y="270" width="100" height="40" as="geometry" />
        </mxCell>
        <mxCell id="S8RayWoB1vWrpVeFTTZD-4" style="edgeStyle=orthogonalEdgeStyle;rounded=0;orthogonalLoop=1;jettySize=auto;html=1;entryX=0.5;entryY=0;entryDx=0;entryDy=0;" edge="1" parent="1" source="S8RayWoB1vWrpVeFTTZD-5" target="S8RayWoB1vWrpVeFTTZD-3">
          <mxGeometry relative="1" as="geometry" />
        </mxCell>
        <mxCell id="S8RayWoB1vWrpVeFTTZD-5" value="&lt;span style=&quot;font-weight: 400;&quot;&gt;邀请教师听评课&lt;/span&gt;" style="rounded=1;whiteSpace=wrap;html=1;fontFamily=Times New Roman;fontStyle=1;strokeWidth=2;" vertex="1" parent="1">
          <mxGeometry x="1000" y="190" width="100" height="40" as="geometry" />
        </mxCell>
        <mxCell id="S8RayWoB1vWrpVeFTTZD-20" style="edgeStyle=orthogonalEdgeStyle;rounded=0;orthogonalLoop=1;jettySize=auto;html=1;entryX=0.5;entryY=0;entryDx=0;entryDy=0;" edge="1" parent="1" source="S8RayWoB1vWrpVeFTTZD-21" target="S8RayWoB1vWrpVeFTTZD-5">
          <mxGeometry relative="1" as="geometry" />
        </mxCell>
        <mxCell id="S8RayWoB1vWrpVeFTTZD-21" value="发起听评课" style="rounded=1;whiteSpace=wrap;html=1;fontFamily=Times New Roman;fontStyle=0;strokeWidth=2;arcSize=50;" vertex="1" parent="1">
          <mxGeometry x="1000" y="120" width="100" height="40" as="geometry" />
        </mxCell>
        <mxCell id="S8RayWoB1vWrpVeFTTZD-22" value="完成听评课" style="rounded=1;whiteSpace=wrap;html=1;fontFamily=Times New Roman;fontStyle=0;strokeWidth=2;arcSize=50;" vertex="1" parent="1">
          <mxGeometry x="1000" y="440" width="100" height="40" as="geometry" />
        </mxCell>
        <mxCell id="S8RayWoB1vWrpVeFTTZD-27" style="edgeStyle=orthogonalEdgeStyle;rounded=0;orthogonalLoop=1;jettySize=auto;html=1;entryX=0.5;entryY=0;entryDx=0;entryDy=0;" edge="1" parent="1" source="S8RayWoB1vWrpVeFTTZD-26">
          <mxGeometry relative="1" as="geometry">
            <mxPoint x="1050" y="440" as="targetPoint" />
          </mxGeometry>
        </mxCell>
        <mxCell id="S8RayWoB1vWrpVeFTTZD-29" style="edgeStyle=orthogonalEdgeStyle;rounded=0;orthogonalLoop=1;jettySize=auto;html=1;" edge="1" parent="1" source="S8RayWoB1vWrpVeFTTZD-26" target="S8RayWoB1vWrpVeFTTZD-28">
          <mxGeometry relative="1" as="geometry" />
        </mxCell>
        <mxCell id="S8RayWoB1vWrpVeFTTZD-26" value="结束听评课" style="rounded=1;whiteSpace=wrap;html=1;fontFamily=Times New Roman;fontStyle=0;strokeWidth=2;" vertex="1" parent="1">
          <mxGeometry x="1000" y="350" width="100" height="48" as="geometry" />
        </mxCell>
        <mxCell id="S8RayWoB1vWrpVeFTTZD-28" value="听评课报告" style="shape=parallelogram;perimeter=parallelogramPerimeter;whiteSpace=wrap;html=1;fixedSize=1;fontFamily=Times New Roman;strokeWidth=2;" vertex="1" parent="1">
          <mxGeometry x="1140" y="344" width="120" height="60" as="geometry" />
        </mxCell>
        <mxCell id="S8RayWoB1vWrpVeFTTZD-34" value="&lt;h1 style=&quot;margin-top: 0px;&quot;&gt;&lt;font face=&quot;Times New Roman&quot;&gt;集备设置&lt;/font&gt;&lt;/h1&gt;&lt;p style=&quot;&quot;&gt;&lt;font face=&quot;Times New Roman&quot;&gt;填写集备信息：填写课程名称和设置上课时间、年级学科。&lt;/font&gt;&lt;/p&gt;&lt;p style=&quot;&quot;&gt;&lt;span style=&quot;background-color: transparent; color: light-dark(rgb(0, 0, 0), rgb(255, 255, 255));&quot;&gt;&lt;font face=&quot;Times New Roman&quot;&gt;课程资料：可以上传课程的教案或者课件&lt;/font&gt;&lt;/span&gt;&lt;/p&gt;&lt;p style=&quot;&quot;&gt;&lt;font face=&quot;Times New Roman&quot;&gt;添加集备人员：支持添加集备人员，鼠标放置头像可点击删除；支持通过手机后添加校外老师加入进行跨校集备&lt;/font&gt;&lt;/p&gt;&lt;p style=&quot;&quot;&gt;&lt;font face=&quot;Times New Roman&quot;&gt;设置访问权限：&lt;span style=&quot;background-color: transparent;&quot;&gt;支持选择本校老师/所有人&lt;/span&gt;&lt;/font&gt;&lt;/p&gt;&lt;p style=&quot;&quot;&gt;&lt;span style=&quot;background-color: transparent; color: light-dark(rgb(0, 0, 0), rgb(255, 255, 255));&quot;&gt;&lt;font face=&quot;Times New Roman&quot;&gt;评论和批注权限：支持选择参备老师/本校老师/所有人&lt;/font&gt;&lt;/span&gt;&lt;/p&gt;" style="shape=note;whiteSpace=wrap;html=1;backgroundOutline=1;darkOpacity=0.05;fillColor=#dae8fc;strokeColor=#6c8ebf;fillStyle=solid;direction=west;gradientDirection=north;shadow=1;size=20;pointerEvents=1;align=left;" vertex="1" parent="1">
          <mxGeometry x="340" y="294" width="335" height="226" as="geometry" />
        </mxCell>
        <mxCell id="S8RayWoB1vWrpVeFTTZD-36" style="edgeStyle=orthogonalEdgeStyle;rounded=0;orthogonalLoop=1;jettySize=auto;html=1;entryX=0;entryY=0;entryDx=335;entryDy=123;entryPerimeter=0;dashed=1;strokeWidth=2;strokeColor=light-dark(#fff8b0, #252500);" edge="1" parent="1" source="yAgrdaD9I5sq0i10FVV4-64" target="S8RayWoB1vWrpVeFTTZD-34">
          <mxGeometry relative="1" as="geometry" />
        </mxCell>
        <mxCell id="S8RayWoB1vWrpVeFTTZD-37" value="&lt;h1 style=&quot;margin-top: 0px;&quot;&gt;&lt;font face=&quot;Times New Roman&quot;&gt;听评课设置&lt;/font&gt;&lt;/h1&gt;&lt;p&gt;&lt;font face=&quot;Times New Roman&quot;&gt;填写课堂信息：填写课程名称和设置上课时间、年级学科。&lt;/font&gt;&lt;/p&gt;&lt;p&gt;&lt;span style=&quot;background-color: transparent; color: light-dark(rgb(0, 0, 0), rgb(255, 255, 255));&quot;&gt;&lt;font face=&quot;Times New Roman&quot;&gt;选择评课表：选择评课表，支持预览&lt;/font&gt;&lt;/span&gt;&lt;/p&gt;&lt;p&gt;&lt;span style=&quot;background-color: transparent; color: light-dark(rgb(0, 0, 0), rgb(255, 255, 255));&quot;&gt;&lt;font face=&quot;Times New Roman&quot;&gt;课程资料：可以上传课程的教案或者课件&lt;/font&gt;&lt;/span&gt;&lt;/p&gt;&lt;p&gt;&lt;br style=&quot;&quot;&gt;&lt;/p&gt;" style="shape=note;whiteSpace=wrap;html=1;backgroundOutline=1;darkOpacity=0.05;fillColor=#d5e8d4;strokeColor=#82b366;fillStyle=solid;direction=west;gradientDirection=north;shadow=1;size=20;pointerEvents=1;align=left;" vertex="1" parent="1">
          <mxGeometry x="1179" y="80" width="270" height="195" as="geometry" />
        </mxCell>
        <mxCell id="S8RayWoB1vWrpVeFTTZD-38" style="edgeStyle=orthogonalEdgeStyle;rounded=0;orthogonalLoop=1;jettySize=auto;html=1;entryX=0;entryY=0;entryDx=270;entryDy=107.5;entryPerimeter=0;fillColor=#fff2cc;strokeColor=light-dark(#fff8b0, #6d5100);dashed=1;strokeWidth=2;" edge="1" parent="1" source="S8RayWoB1vWrpVeFTTZD-21" target="S8RayWoB1vWrpVeFTTZD-37">
          <mxGeometry relative="1" as="geometry" />
        </mxCell>
      </root>
    </mxGraphModel>
  </diagram>
</mxfile>
